<?xml version="1.0" encoding="UTF-8" standalone="no"?>
<!-- Created with Inkscape (http://www.inkscape.org/) -->

<svg
   width="210mm"
   height="297mm"
   viewBox="0 0 793.70081 1122.5197"
   version="1.1"
   id="svg1"
   inkscape:version="1.3 (0e150ed6c4, 2023-07-21)"
   sodipodi:docname="poster-pet.svg"
   inkscape:export-filename="pet.pdf"
   inkscape:export-xdpi="96"
   inkscape:export-ydpi="96"
   xml:space="preserve"
   xmlns:inkscape="http://www.inkscape.org/namespaces/inkscape"
   xmlns:sodipodi="http://sodipodi.sourceforge.net/DTD/sodipodi-0.dtd"
   xmlns="http://www.w3.org/2000/svg"
   xmlns:svg="http://www.w3.org/2000/svg"><sodipodi:namedview
     id="namedview1"
     pagecolor="#ffffff"
     bordercolor="#000000"
     borderopacity="0.25"
     inkscape:showpageshadow="2"
     inkscape:pageopacity="0.0"
     inkscape:pagecheckerboard="0"
     inkscape:deskcolor="#d1d1d1"
     inkscape:document-units="mm"
     inkscape:zoom="0.35355339"
     inkscape:cx="395.9798"
     inkscape:cy="381.83766"
     inkscape:current-layer="layer1"
     showgrid="false"
     showguides="true"><inkscape:grid
       id="grid6"
       units="px"
       originx="0"
       originy="0"
       spacingx="1"
       spacingy="1"
       empcolor="#0099e5"
       empopacity="0.30196078"
       color="#0099e5"
       opacity="0.14901961"
       empspacing="5"
       dotted="false"
       gridanglex="30"
       gridanglez="30"
       visible="false" /><sodipodi:guide
       position="0,1046.9292"
       orientation="0,1"
       id="guide1"
       inkscape:locked="false"
       inkscape:label=""
       inkscape:color="rgb(0,134,229)" /><sodipodi:guide
       position="0,75.590553"
       orientation="0,1"
       id="guide2"
       inkscape:locked="false"
       inkscape:label=""
       inkscape:color="rgb(0,134,229)" /><sodipodi:guide
       position="75.590553,1122.5197"
       orientation="-1,0"
       id="guide3"
       inkscape:locked="false"
       inkscape:label=""
       inkscape:color="rgb(0,134,229)" /><sodipodi:guide
       position="718.11025,1122.5197"
       orientation="-1,0"
       id="guide4"
       inkscape:locked="false"
       inkscape:label=""
       inkscape:color="rgb(0,134,229)" /></sodipodi:namedview><defs
     id="defs1"><rect
       x="127.74944"
       y="282.72417"
       width="412.56787"
       height="598.9564"
       id="rect5" /></defs><g
     inkscape:label="Layer 1"
     inkscape:groupmode="layer"
     id="layer1"><text
       xml:space="preserve"
       style="font-weight:bold;font-size:85.3334px;font-family:'UD Digi Kyokasho NP-B';-inkscape-font-specification:'UD Digi Kyokasho NP-B, Bold';writing-mode:tb-rl;text-orientation:upright;fill:none;stroke:#000000;stroke-width:1.25102"
       x="401.99789"
       y="85.469048"
       id="text1"><tspan
         sodipodi:role="line"
         id="tspan1"
         x="401.99789"
         y="85.469048"
         style="font-style:normal;font-variant:normal;font-weight:normal;font-stretch:normal;font-family:'Yu Gothic';-inkscape-font-specification:'Yu Gothic';fill:#000000;fill-opacity:1" /></text><text
       xml:space="preserve"
       style="font-style:normal;font-variant:normal;font-weight:normal;font-stretch:normal;font-size:29.3333px;font-family:'Yu Gothic';-inkscape-font-specification:'Yu Gothic';writing-mode:tb-rl;text-orientation:upright;fill:#000000;fill-opacity:1;stroke:#000000;stroke-width:1.25102"
       x="90.180893"
       y="959.8363"
       id="text2"><tspan
         sodipodi:role="line"
         x="90.180893"
         y="959.8363"
         style="font-size:29.3333px"
         id="tspan8">清掃係</tspan></text><text
       xml:space="preserve"
       style="font-style:normal;font-variant:normal;font-weight:normal;font-stretch:normal;font-size:85.3334px;font-family:'Yu Gothic';-inkscape-font-specification:'Yu Gothic';writing-mode:tb-rl;text-orientation:upright;fill:#000000;fill-opacity:1;stroke:#000000;stroke-width:1.25102"
       x="416.75638"
       y="178.01152"
       id="text3"><tspan
         sodipodi:role="line"
         x="416.75638"
         y="178.01152"
         id="tspan4" /></text><text
       xml:space="preserve"
       id="text5"
       style="font-style:normal;font-variant:normal;font-weight:normal;font-stretch:normal;font-size:29.3333px;font-family:'Yu Gothic';-inkscape-font-specification:'Yu Gothic';writing-mode:tb-rl;text-orientation:upright;white-space:pre;shape-inside:url(#rect5);display:inline;fill:#000000;fill-opacity:1;stroke:#000000;stroke-width:1.25102" /><text
       xml:space="preserve"
       style="font-style:normal;font-variant:normal;font-weight:bold;font-stretch:normal;font-size:84.0416px;font-family:'Yu Gothic';-inkscape-font-specification:'Yu Gothic, Bold';font-variant-ligatures:normal;font-variant-caps:normal;font-variant-numeric:normal;font-variant-east-asian:normal;writing-mode:tb-rl;text-orientation:upright;fill:#000000;fill-opacity:1;stroke:#000000;stroke-width:1.25102"
       x="674.65045"
       y="73.141083"
       id="text9"
       transform="scale(1.0016514,0.99835136)"><tspan
         sodipodi:role="line"
         id="tspan21"
         x="674.65045"
         y="73.141083"
         style="stroke-width:1.25102">ペットボトルはキャップ・</tspan><tspan
         sodipodi:role="line"
         id="tspan22"
         x="569.59845"
         y="73.141083"
         style="stroke-width:1.25102">ラベルをはがして</tspan><tspan
         sodipodi:role="line"
         id="tspan23"
         x="464.54648"
         y="73.141083"
         style="stroke-width:1.25102">内部をよくすすいでから</tspan><tspan
         sodipodi:role="line"
         id="tspan24"
         x="359.49451"
         y="73.141083"
         style="stroke-width:1.25102">網に入れてください</tspan></text><text
       xml:space="preserve"
       style="font-style:normal;font-variant:normal;font-weight:normal;font-stretch:normal;font-size:29.3333px;font-family:'Yu Gothic';-inkscape-font-specification:'Yu Gothic';writing-mode:tb-rl;text-orientation:upright;fill:#000000;fill-opacity:1;stroke:#000000;stroke-width:1.25102"
       x="180.44695"
       y="293.34396"
       id="text10"><tspan
         sodipodi:role="line"
         x="180.44695"
         y="293.34396"
         id="tspan12"
         style="font-style:normal;font-variant:normal;font-weight:normal;font-stretch:normal;font-size:24px;font-family:Meiryo;-inkscape-font-specification:'Meiryo, Normal';font-variant-ligatures:normal;font-variant-caps:normal;font-variant-numeric:normal;font-variant-east-asian:normal" /></text></g><g
     id="g24"
     transform="translate(-458.11026,-193.07887)"><path
       d="m 627.06468,406.80535 17.29616,-16.6853 0.2341,8.45205 29.80912,-0.20117 2.58631,-0.90004 c 1.42247,-0.49502 3.31458,-1.40884 4.2048,-2.03068 5.39654,-3.7703 6.68629,-10.67509 3.35735,-17.97567 -0.46967,-1.03006 -5.4365,-9.80393 -11.03718,-19.49735 -5.60068,-9.69343 -10.07985,-17.72285 -9.95343,-17.84333 0.61335,-0.58386 13.1956,-7.68202 13.2983,-7.50223 0.065,0.11386 4.6137,8.00258 10.10825,17.53058 11.21884,19.45458 12.16805,21.24063 13.66007,25.70419 5.77766,17.28243 -1.15744,31.41039 -17.78746,36.23915 -5.05569,1.4678 -5.58507,1.50844 -22.17081,1.70221 l -15.919,0.18598 -0.31214,9.67626 z m -57.57685,6.41567 c -10.85583,-1.9114 -18.7476,-7.11736 -22.40741,-14.78095 -1.5694,-3.28619 -2.08268,-5.52171 -2.27196,-9.89476 -0.19763,-4.56563 0.28551,-7.73944 1.93107,-12.68495 1.38948,-4.17577 3.06622,-7.44447 9.64973,-18.81189 3.0232,-5.21987 5.46022,-9.51395 5.41527,-9.54204 l -7.20319,-4.44858 c 0.97299,-0.32434 23.04447,-6.57799 23.06414,-6.53491 0.32066,0.70555 5.77891,23.06945 5.65967,23.189 l -8.25416,-3.73691 c -0.93769,1.28235 -11.72294,20.21433 -12.44179,21.83962 -1.21656,2.75084 -1.7667,5.57759 -1.60224,8.23294 0.35353,5.70868 3.43289,9.43123 9.51583,11.50351 l 2.41716,0.82348 44.16743,0.18576 v 15.26727 l -22.23979,-0.0255 c -19.87284,-0.0228 -22.57626,-0.0848 -25.40017,-0.58198 z m 7.88864,-91.79024 c -0.28292,-0.26269 18.81814,-33.60471 21.36643,-37.29729 2.79194,-4.04467 7.0362,-8.41586 10.5003,-10.81463 2.11835,-1.46686 6.27708,-3.32988 8.94867,-4.00878 6.73061,-1.71042 14.54591,0.0535 20.80895,4.69642 3.07402,2.27889 7.64486,7.20133 9.98933,10.75751 1.12937,1.71323 4.63087,7.6096 7.78096,13.10321 3.15009,5.49362 5.76705,10.04084 5.8148,10.10514 l 7.44542,-3.97008 c 0.1146,0.1146 -5.6447,23.02731 -5.83635,23.21896 -0.11511,0.11512 -22.72547,-6.31297 -22.93211,-6.5193 l 7.70262,-4.96985 c 0,-0.44017 -11.85841,-20.86326 -13.29424,-22.8959 -3.68198,-5.21269 -9.11847,-7.94421 -13.92726,-6.99812 -3.81838,0.75122 -7.55435,3.35798 -10.11263,7.05618 -0.66819,0.96588 -5.64376,9.42249 -11.05684,18.79254 -5.41309,9.37005 -9.9781,17.07953 -10.14447,17.13228 -4.44077,-2.25225 -8.87469,-4.66364 -13.05389,-7.38922 z m 4.16766,149.82908 v -32.4966 h 14.07927 c 3.83086,0 6.74591,0.8658 8.74515,2.5974 1.99933,1.7317 2.99901,4.2554 2.99901,7.5713 -2e-5,3.5074 -0.99971,6.1712 -2.99901,7.9913 -1.99937,1.8201 -4.91461,2.7301 -8.74515,2.7301 l -7.05119,0.044 v 11.5616 z m 7.02839,-17.1985 h 5.8607 c 1.9688,0 3.44537,-0.42 4.42985,-1.26 0.98439,-0.84 1.4766,-2.1074 1.47663,-3.8022 -3e-5,-1.5473 -0.49224,-2.7079 -1.47663,-3.4815 -0.98445,-0.7737 -2.46105,-1.1606 -4.42985,-1.1606 h -5.8607 z m 24.28991,17.1985 v -32.4966 h 24.7706 v 5.7695 h -17.7422 v 6.897 h 16.46025 v 5.5929 h -16.46025 v 8.4667 h 18.52067 v 5.7696 z m 38.57394,0 v -26.7265 h -10.16476 v -5.7695 h 27.3576 v 5.7695 h -10.16476 v 26.7265 z M 619.31119,340.47429 h -11.86122 v -7.06617 l 2.92376,-0.51806 c 3.54963,-0.62892 5.3619,-1.37137 7.03277,-2.88084 1.59427,-1.44032 2.46442,-2.84207 3.16008,-5.09096 l 0.54699,-1.76782 h 8.34187 l 0.1592,59.77431 h -10.30365 z"
       id="path1"
       style="stroke-width:1" /><g
       inkscape:label="QR Code: https://www.city.sumida.lg.jp/kurashi/gomi_recycle/kateikei/shigen_dashikata/sigen-syusekijo.html"
       id="g15"
       transform="translate(533.70081,471.25986)"><rect
         x="0"
         y="0"
         width="180"
         height="180"
         style="fill:#ffffff;stroke:none"
         id="rect14" /><g
         style="fill:#000000;stroke:none"
         id="g14"><path
           d="m 163.6,164 h -15.2 c -0.22091,0 -0.4,-0.17909 -0.4,-0.4 v -3.2 c 0,-0.22091 -0.17909,-0.4 -0.4,-0.4 h -3.2 c -0.22091,0 -0.4,-0.17909 -0.4,-0.4 v -3.2 c 0,-0.22091 -0.17909,-0.4 -0.4,-0.4 h -3.2 c -0.22091,0 -0.4,0.17909 -0.4,0.4 v 3.2 c 0,0.22091 -0.17909,0.4 -0.4,0.4 h -7.2 c -0.22091,0 -0.4,-0.17909 -0.4,-0.4 v -3.2 c 0,-0.22091 -0.17909,-0.4 -0.4,-0.4 H 124 v -8 h 4 v 3.6 c 0,0.22091 0.17909,0.4 0.4,0.4 h 7.2 c 0.22091,0 0.4,-0.17909 0.4,-0.4 v -3.2 c 0,-0.22091 -0.17909,-0.4 -0.4,-0.4 H 128 v -3.6 c 0,-0.22091 -0.17909,-0.4 -0.4,-0.4 H 124 v -4 h 3.6 c 0.22091,0 0.4,-0.17909 0.4,-0.4 v -15.2 c 0,-0.22091 0.17909,-0.4 0.4,-0.4 h 11.2 c 0.22091,0 0.4,0.17909 0.4,0.4 v 3.2 c 0,0.22091 0.17909,0.4 0.4,0.4 h 3.2 c 0.22091,0 0.4,-0.17909 0.4,-0.4 v -3.2 c 0,-0.22091 0.17909,-0.4 0.4,-0.4 h 3.6 v 3.6 c 0,0.22091 0.17909,0.4 0.4,0.4 h 11.2 c 0.22091,0 0.4,-0.17909 0.4,-0.4 V 124 h 3.6 c 0.22091,0 0.4,0.17909 0.4,0.4 v 15.2 c 0,0.22091 -0.17909,0.4 -0.4,0.4 h -11.2 c -0.22091,0 -0.4,-0.17909 -0.4,-0.4 v -3.2 c 0,-0.22091 -0.17909,-0.4 -0.4,-0.4 h -3.2 c -0.22091,0 -0.4,0.17909 -0.4,0.4 v 19.2 c 0,0.22091 0.17909,0.4 0.4,0.4 h 3.2 c 0.22091,0 0.4,-0.17909 0.4,-0.4 v -7.2 c 0,-0.22091 0.17909,-0.4 0.4,-0.4 h 3.2 c 0.22091,0 0.4,0.17909 0.4,0.4 v 11.2 c 0,0.22091 0.17909,0.4 0.4,0.4 h 7.2 c 0.22091,0 0.4,0.17909 0.4,0.4 v 3.2 c 0,0.22091 -0.17909,0.4 -0.4,0.4 z m -40,0 h -15.2 c -0.22091,0 -0.4,-0.17909 -0.4,-0.4 v -3.2 c 0,-0.22091 0.17909,-0.4 0.4,-0.4 h 7.2 c 0.22091,0 0.4,-0.17909 0.4,-0.4 V 156 h 8 v 7.6 c 0,0.22091 -0.17909,0.4 -0.4,0.4 z m -28,0 H 92.4 C 92.179086,164 92,163.82091 92,163.6 V 160 h 4 v 3.6 c 0,0.22091 -0.179086,0.4 -0.4,0.4 z m -8,0 H 60.4 c -0.220914,0 -0.4,-0.17909 -0.4,-0.4 v -3.2 c 0,-0.22091 0.179086,-0.4 0.4,-0.4 h 3.2 c 0.220914,0 0.4,-0.17909 0.4,-0.4 v -3.2 c 0,-0.22091 -0.179086,-0.4 -0.4,-0.4 h -7.2 c -0.220914,0 -0.4,0.17909 -0.4,0.4 v 3.2 c 0,0.22091 -0.179086,0.4 -0.4,0.4 h -3.2 c -0.220914,0 -0.4,0.17909 -0.4,0.4 v 3.2 c 0,0.22091 -0.179086,0.4 -0.4,0.4 h -3.2 c -0.220914,0 -0.4,-0.17909 -0.4,-0.4 v -15.2 c 0,-0.22091 0.179086,-0.4 0.4,-0.4 h 11.2 c 0.220914,0 0.4,-0.17909 0.4,-0.4 v -3.2 c 0,-0.22091 -0.179086,-0.4 -0.4,-0.4 h -3.2 c -0.220914,0 -0.4,-0.17909 -0.4,-0.4 v -11.2 c 0,-0.22091 -0.179086,-0.4 -0.4,-0.4 h -3.2 c -0.220914,0 -0.4,0.17909 -0.4,0.4 v 3.2 c 0,0.22091 -0.179086,0.4 -0.4,0.4 h -3.2 c -0.220914,0 -0.4,-0.17909 -0.4,-0.4 v -3.2 C 48,132.17909 47.820914,132 47.6,132 H 28.4 C 28.179086,132 28,131.82091 28,131.6 V 128 h 7.6 c 0.220914,0 0.4,-0.17909 0.4,-0.4 v -7.2 c 0,-0.22091 0.179086,-0.4 0.4,-0.4 h 11.2 c 0.220914,0 0.4,-0.17909 0.4,-0.4 v -3.2 C 48,116.17909 47.820914,116 47.6,116 H 40.4 C 40.179086,116 40,115.82091 40,115.6 V 112 h 3.6 c 0.220914,0 0.4,-0.17909 0.4,-0.4 v -3.2 c 0,-0.22091 -0.179086,-0.4 -0.4,-0.4 h -3.2 c -0.220914,0 -0.4,0.17909 -0.4,0.4 v 3.6 h -4 v -3.6 c 0,-0.22091 -0.179086,-0.4 -0.4,-0.4 h -3.2 c -0.220914,0 -0.4,0.17909 -0.4,0.4 V 112 H 20.4 c -0.220914,0 -0.4,-0.17909 -0.4,-0.4 v -7.2 c 0,-0.22091 0.179086,-0.4 0.4,-0.4 h 3.2 c 0.220914,0 0.4,0.17909 0.4,0.4 v 3.2 c 0,0.22091 0.179086,0.4 0.4,0.4 h 3.2 c 0.220914,0 0.4,-0.17909 0.4,-0.4 v -7.2 c 0,-0.22091 0.179086,-0.4 0.4,-0.4 H 32 v 3.6 c 0,0.22091 0.179086,0.4 0.4,0.4 h 3.2 c 0.220914,0 0.4,-0.17909 0.4,-0.4 V 100 h 4 v 3.6 c 0,0.22091 0.179086,0.4 0.4,0.4 h 3.2 c 0.220914,0 0.4,-0.17909 0.4,-0.4 V 100 h 7.6 c 0.220914,0 0.4,0.17909 0.4,0.4 v 3.2 c 0,0.22091 0.179086,0.4 0.4,0.4 h 3.2 c 0.220914,0 0.4,-0.17909 0.4,-0.4 v -3.2 c 0,-0.22091 0.179086,-0.4 0.4,-0.4 H 60 v 3.6 c 0,0.22091 0.179086,0.4 0.4,0.4 h 3.2 c 0.220914,0 0.4,-0.17909 0.4,-0.4 v -3.2 C 64,100.17909 63.820914,100 63.6,100 H 60 V 96.4 C 60,96.179086 60.179086,96 60.4,96 h 3.2 C 63.820914,96 64,95.820914 64,95.6 V 92.4 C 64,92.179086 63.820914,92 63.6,92 H 60.4 C 60.179086,92 60,91.820914 60,91.6 V 88.4 C 60,88.179086 60.179086,88 60.4,88 h 3.2 C 63.820914,88 64,87.820914 64,87.6 V 84 h 4 v 3.6 c 0,0.220914 0.179086,0.4 0.4,0.4 h 3.2 c 0.220914,0 0.4,0.179086 0.4,0.4 V 92 H 68.4 C 68.179086,92 68,92.179086 68,92.4 v 7.2 c 0,0.220914 0.179086,0.4 0.4,0.4 H 72 v 7.6 c 0,0.22091 0.179086,0.4 0.4,0.4 h 3.2 c 0.220914,0 0.4,0.17909 0.4,0.4 v 3.6 h -3.6 c -0.220914,0 -0.4,0.17909 -0.4,0.4 v 3.2 c 0,0.22091 0.179086,0.4 0.4,0.4 h 3.2 c 0.220914,0 0.4,-0.17909 0.4,-0.4 V 112 h 3.6 c 0.220914,0 0.4,0.17909 0.4,0.4 v 3.2 c 0,0.22091 0.179086,0.4 0.4,0.4 h 3.2 c 0.220914,0 0.4,-0.17909 0.4,-0.4 v -3.2 c 0,-0.22091 0.179086,-0.4 0.4,-0.4 H 88 v 3.6 c 0,0.22091 0.179086,0.4 0.4,0.4 h 3.2 c 0.220914,0 0.4,-0.17909 0.4,-0.4 v -3.2 C 92,112.17909 91.820914,112 91.6,112 H 88 v -4 h 7.6 c 0.220914,0 0.4,0.17909 0.4,0.4 v 15.2 c 0,0.22091 -0.179086,0.4 -0.4,0.4 h -3.2 c -0.220914,0 -0.4,0.17909 -0.4,0.4 v 3.2 c 0,0.22091 0.179086,0.4 0.4,0.4 h 7.2 c 0.220914,0 0.4,-0.17909 0.4,-0.4 v -11.2 c 0,-0.22091 0.17909,-0.4 0.4,-0.4 h 3.6 v 3.6 c 0,0.22091 0.17909,0.4 0.4,0.4 h 3.2 c 0.22091,0 0.4,0.17909 0.4,0.4 v 3.2 c 0,0.22091 0.17909,0.4 0.4,0.4 h 7.2 c 0.22091,0 0.4,0.17909 0.4,0.4 v 3.2 c 0,0.22091 0.17909,0.4 0.4,0.4 h 3.6 v 3.6 c 0,0.22091 -0.17909,0.4 -0.4,0.4 h -3.2 c -0.22091,0 -0.4,0.17909 -0.4,0.4 v 3.6 h -7.6 c -0.22091,0 -0.4,0.17909 -0.4,0.4 v 7.6 h -4 v -3.6 c 0,-0.22091 -0.17909,-0.4 -0.4,-0.4 h -3.2 c -0.22091,0 -0.4,0.17909 -0.4,0.4 v 3.2 c 0,0.22091 0.17909,0.4 0.4,0.4 h 3.6 v 3.6 c 0,0.22091 -0.17909,0.4 -0.4,0.4 h -3.2 c -0.22091,0 -0.4,0.17909 -0.4,0.4 v 3.2 c 0,0.22091 -0.179086,0.4 -0.4,0.4 h -7.2 c -0.220914,0 -0.4,0.17909 -0.4,0.4 v 7.6 h -4 v -7.6 c 0,-0.22091 -0.179086,-0.4 -0.4,-0.4 h -3.2 c -0.220914,0 -0.4,0.17909 -0.4,0.4 v 7.2 c 0,0.22091 0.179086,0.4 0.4,0.4 H 88 v 3.6 c 0,0.22091 -0.179086,0.4 -0.4,0.4 z m -44,0 H 16.4 c -0.220914,0 -0.4,-0.17909 -0.4,-0.4 v -27.2 c 0,-0.22091 0.179086,-0.4 0.4,-0.4 h 27.2 c 0.220914,0 0.4,0.17909 0.4,0.4 v 27.2 c 0,0.22091 -0.179086,0.4 -0.4,0.4 z m 56,-4 H 96 v -3.6 c 0,-0.22091 0.179086,-0.4 0.4,-0.4 h 3.2 c 0.220914,0 0.4,0.17909 0.4,0.4 v 3.2 c 0,0.22091 -0.179086,0.4 -0.4,0.4 z M 76,159.6 v -3.2 c 0,-0.22091 0.179086,-0.4 0.4,-0.4 h 3.2 c 0.220914,0 0.4,-0.17909 0.4,-0.4 v -7.2 c 0,-0.22091 -0.179086,-0.4 -0.4,-0.4 h -3.2 c -0.220914,0 -0.4,0.17909 -0.4,0.4 v 3.2 c 0,0.22091 -0.179086,0.4 -0.4,0.4 h -3.2 c -0.220914,0 -0.4,-0.17909 -0.4,-0.4 v -11.2 c 0,-0.22091 0.179086,-0.4 0.4,-0.4 H 76 v 3.6 c 0,0.22091 0.179086,0.4 0.4,0.4 h 7.2 c 0.220914,0 0.4,-0.17909 0.4,-0.4 V 140 h 3.6 c 0.220914,0 0.4,-0.17909 0.4,-0.4 v -3.2 c 0,-0.22091 0.179086,-0.4 0.4,-0.4 h 3.2 c 0.220914,0 0.4,0.17909 0.4,0.4 v 3.2 c 0,0.22091 0.179086,0.4 0.4,0.4 h 3.2 c 0.220914,0 0.4,-0.17909 0.4,-0.4 v -7.2 C 96,132.17909 95.820914,132 95.6,132 H 88.4 C 88.179086,132 88,131.82091 88,131.6 V 120.4 C 88,120.17909 87.820914,120 87.6,120 H 76.4 c -0.220914,0 -0.4,0.17909 -0.4,0.4 v 3.2 c 0,0.22091 -0.179086,0.4 -0.4,0.4 h -3.2 c -0.220914,0 -0.4,-0.17909 -0.4,-0.4 v -3.2 c 0,-0.22091 -0.179086,-0.4 -0.4,-0.4 h -7.2 c -0.220914,0 -0.4,0.17909 -0.4,0.4 v 7.2 c 0,0.22091 -0.179086,0.4 -0.4,0.4 h -3.2 c -0.220914,0 -0.4,0.17909 -0.4,0.4 v 11.2 c 0,0.22091 0.179086,0.4 0.4,0.4 h 3.2 c 0.220914,0 0.4,-0.17909 0.4,-0.4 v -3.2 c 0,-0.22091 0.179086,-0.4 0.4,-0.4 h 3.2 c 0.220914,0 0.4,0.17909 0.4,0.4 v 7.2 c 0,0.22091 -0.179086,0.4 -0.4,0.4 h -3.2 c -0.220914,0 -0.4,0.17909 -0.4,0.4 v 7.2 c 0,0.22091 0.179086,0.4 0.4,0.4 h 3.2 c 0.220914,0 0.4,0.17909 0.4,0.4 v 3.2 c 0,0.22091 0.179086,0.4 0.4,0.4 h 3.2 c 0.220914,0 0.4,0.17909 0.4,0.4 v 3.2 c 0,0.22091 0.179086,0.4 0.4,0.4 h 3.2 c 0.220914,0 0.4,-0.17909 0.4,-0.4 z m -36,0 V 140.4 C 40,140.17909 39.820914,140 39.6,140 H 20.4 c -0.220914,0 -0.4,0.17909 -0.4,0.4 v 19.2 c 0,0.22091 0.179086,0.4 0.4,0.4 h 19.2 c 0.220914,0 0.4,-0.17909 0.4,-0.4 z m 75.6,-3.6 h -7.2 c -0.22091,0 -0.4,-0.17909 -0.4,-0.4 v -3.2 c 0,-0.22091 0.17909,-0.4 0.4,-0.4 h 7.6 v 4 z m -80,0 H 24.4 c -0.220914,0 -0.4,-0.17909 -0.4,-0.4 v -11.2 c 0,-0.22091 0.179086,-0.4 0.4,-0.4 h 11.2 c 0.220914,0 0.4,0.17909 0.4,0.4 v 11.2 c 0,0.22091 -0.179086,0.4 -0.4,0.4 z M 144,151.6 v -3.2 c 0,-0.22091 -0.17909,-0.4 -0.4,-0.4 h -3.2 c -0.22091,0 -0.4,0.17909 -0.4,0.4 v 3.2 c 0,0.22091 0.17909,0.4 0.4,0.4 h 3.2 c 0.22091,0 0.4,-0.17909 0.4,-0.4 z M 119.6,152 H 116 v -4 h 4 v 3.6 c 0,0.22091 -0.17909,0.4 -0.4,0.4 z m 4,-4 H 120 v -3.6 c 0,-0.22091 0.17909,-0.4 0.4,-0.4 h 3.6 v 4 z m -8,0 h -7.2 c -0.22091,0 -0.4,-0.17909 -0.4,-0.4 V 144 h 3.6 c 0.22091,0 0.4,-0.17909 0.4,-0.4 v -3.2 c 0,-0.22091 0.17909,-0.4 0.4,-0.4 h 3.6 v 8 z M 92,147.6 v -3.2 c 0,-0.22091 -0.179086,-0.4 -0.4,-0.4 h -3.2 c -0.220914,0 -0.4,0.17909 -0.4,0.4 v 3.2 c 0,0.22091 0.179086,0.4 0.4,0.4 h 3.2 c 0.220914,0 0.4,-0.17909 0.4,-0.4 z m 52,-4 v -11.2 c 0,-0.22091 -0.17909,-0.4 -0.4,-0.4 h -11.2 c -0.22091,0 -0.4,0.17909 -0.4,0.4 v 11.2 c 0,0.22091 0.17909,0.4 0.4,0.4 h 11.2 c 0.22091,0 0.4,-0.17909 0.4,-0.4 z m -4.4,-3.6 h -3.2 c -0.22091,0 -0.4,-0.17909 -0.4,-0.4 v -3.2 c 0,-0.22091 0.17909,-0.4 0.4,-0.4 h 3.2 c 0.22091,0 0.4,0.17909 0.4,0.4 v 3.2 c 0,0.22091 -0.17909,0.4 -0.4,0.4 z m -16,0 H 116 v -4 h 7.6 c 0.22091,0 0.4,0.17909 0.4,0.4 v 3.6 z m -40,0 H 76 v -7.6 c 0,-0.22091 0.179086,-0.4 0.4,-0.4 h 3.2 c 0.220914,0 0.4,0.17909 0.4,0.4 v 3.2 c 0,0.22091 0.179086,0.4 0.4,0.4 h 3.2 c 0.220914,0 0.4,0.17909 0.4,0.4 v 3.6 z m 76.4,-4.4 v -3.2 c 0,-0.22091 -0.17909,-0.4 -0.4,-0.4 h -3.2 c -0.22091,0 -0.4,0.17909 -0.4,0.4 v 3.2 c 0,0.22091 0.17909,0.4 0.4,0.4 h 3.2 c 0.22091,0 0.4,-0.17909 0.4,-0.4 z m -56,0 v -3.2 c 0,-0.22091 -0.17909,-0.4 -0.4,-0.4 h -3.2 c -0.22091,0 -0.4,0.17909 -0.4,0.4 v 3.2 c 0,0.22091 0.17909,0.4 0.4,0.4 h 3.2 c 0.22091,0 0.4,-0.17909 0.4,-0.4 z M 71.6,132 h -3.2 c -0.220914,0 -0.4,-0.17909 -0.4,-0.4 v -3.2 c 0,-0.22091 0.179086,-0.4 0.4,-0.4 h 3.2 c 0.220914,0 0.4,0.17909 0.4,0.4 v 3.2 c 0,0.22091 -0.179086,0.4 -0.4,0.4 z m 52,-4 H 120 v -11.6 c 0,-0.22091 -0.17909,-0.4 -0.4,-0.4 h -3.2 c -0.22091,0 -0.4,0.17909 -0.4,0.4 v 3.2 c 0,0.22091 -0.17909,0.4 -0.4,0.4 h -3.2 c -0.22091,0 -0.4,-0.17909 -0.4,-0.4 v -11.2 c 0,-0.22091 -0.17909,-0.4 -0.4,-0.4 h -3.2 c -0.22091,0 -0.4,-0.17909 -0.4,-0.4 v -7.2 c 0,-0.22091 0.17909,-0.4 0.4,-0.4 h 3.2 c 0.22091,0 0.4,0.17909 0.4,0.4 v 3.2 c 0,0.22091 0.17909,0.4 0.4,0.4 h 3.2 c 0.22091,0 0.4,-0.17909 0.4,-0.4 v -3.2 c 0,-0.22091 0.17909,-0.4 0.4,-0.4 h 3.2 c 0.22091,0 0.4,0.17909 0.4,0.4 v 7.2 c 0,0.22091 0.17909,0.4 0.4,0.4 h 7.2 c 0.22091,0 0.4,0.17909 0.4,0.4 v 3.2 c 0,0.22091 -0.17909,0.4 -0.4,0.4 h -3.2 c -0.22091,0 -0.4,0.17909 -0.4,0.4 v 3.2 c 0,0.22091 0.17909,0.4 0.4,0.4 h 3.2 c 0.22091,0 0.4,0.17909 0.4,0.4 v 3.2 c 0,0.22091 -0.17909,0.4 -0.4,0.4 h -3.2 c -0.22091,0 -0.4,0.17909 -0.4,0.4 v 7.2 c 0,0.22091 -0.17909,0.4 -0.4,0.4 z m -40,0 h -3.2 c -0.220914,0 -0.4,-0.17909 -0.4,-0.4 v -3.2 c 0,-0.22091 0.179086,-0.4 0.4,-0.4 h 3.2 c 0.220914,0 0.4,0.17909 0.4,0.4 v 3.2 c 0,0.22091 -0.179086,0.4 -0.4,0.4 z M 52,127.6 V 124 h 3.6 c 0.220914,0 0.4,-0.17909 0.4,-0.4 v -7.2 c 0,-0.22091 -0.179086,-0.4 -0.4,-0.4 h -3.2 c -0.220914,0 -0.4,0.17909 -0.4,0.4 V 124 H 40.4 c -0.220914,0 -0.4,0.17909 -0.4,0.4 v 3.2 c 0,0.22091 0.179086,0.4 0.4,0.4 h 11.2 c 0.220914,0 0.4,-0.17909 0.4,-0.4 z M 27.6,128 h -3.2 c -0.220914,0 -0.4,-0.17909 -0.4,-0.4 v -3.2 C 24,124.17909 23.820914,124 23.6,124 H 20 v -7.6 c 0,-0.22091 0.179086,-0.4 0.4,-0.4 h 3.2 c 0.220914,0 0.4,0.17909 0.4,0.4 v 3.2 c 0,0.22091 0.179086,0.4 0.4,0.4 h 3.2 c 0.220914,0 0.4,-0.17909 0.4,-0.4 v -3.2 c 0,-0.22091 0.179086,-0.4 0.4,-0.4 H 32 v 7.6 c 0,0.22091 -0.179086,0.4 -0.4,0.4 h -3.2 c -0.220914,0 -0.4,0.17909 -0.4,0.4 v 3.6 z m -8,0 h -3.2 c -0.220914,0 -0.4,-0.17909 -0.4,-0.4 v -3.2 c 0,-0.22091 0.179086,-0.4 0.4,-0.4 H 20 v 3.6 c 0,0.22091 -0.179086,0.4 -0.4,0.4 z m 140,-4 h -3.2 c -0.22091,0 -0.4,-0.17909 -0.4,-0.4 v -3.2 c 0,-0.22091 0.17909,-0.4 0.4,-0.4 h 3.6 v 4 z m -8,0 H 148 v -3.6 c 0,-0.22091 -0.17909,-0.4 -0.4,-0.4 h -15.2 c -0.22091,0 -0.4,-0.17909 -0.4,-0.4 v -7.2 c 0,-0.22091 0.17909,-0.4 0.4,-0.4 H 148 v 3.6 c 0,0.22091 0.17909,0.4 0.4,0.4 h 3.6 v 7.6 c 0,0.22091 -0.17909,0.4 -0.4,0.4 z m 12,-4 H 160 v -3.6 c 0,-0.22091 -0.17909,-0.4 -0.4,-0.4 H 152 v -3.6 c 0,-0.22091 -0.17909,-0.4 -0.4,-0.4 H 148 v -3.6 c 0,-0.22091 -0.17909,-0.4 -0.4,-0.4 h -3.2 c -0.22091,0 -0.4,-0.17909 -0.4,-0.4 V 104 h 12 v 7.6 c 0,0.22091 0.17909,0.4 0.4,0.4 h 7.2 c 0.22091,0 0.4,0.17909 0.4,0.4 v 7.2 c 0,0.22091 -0.17909,0.4 -0.4,0.4 z m -56,-4 H 104 v -3.6 c 0,-0.22091 0.17909,-0.4 0.4,-0.4 h 3.2 c 0.22091,0 0.4,0.17909 0.4,0.4 v 3.2 c 0,0.22091 -0.17909,0.4 -0.4,0.4 z M 64,115.6 v -3.2 c 0,-0.22091 0.179086,-0.4 0.4,-0.4 h 3.2 c 0.220914,0 0.4,-0.17909 0.4,-0.4 v -3.2 C 68,108.17909 67.820914,108 67.6,108 H 56.4 c -0.220914,0 -0.4,0.17909 -0.4,0.4 v 3.2 c 0,0.22091 0.179086,0.4 0.4,0.4 h 3.2 c 0.220914,0 0.4,0.17909 0.4,0.4 v 3.2 c 0,0.22091 0.179086,0.4 0.4,0.4 h 3.2 c 0.220914,0 0.4,-0.17909 0.4,-0.4 z M 35.6,116 H 32 v -4 h 4 v 3.6 c 0,0.22091 -0.179086,0.4 -0.4,0.4 z M 52,111.6 v -3.2 c 0,-0.22091 -0.179086,-0.4 -0.4,-0.4 h -3.2 c -0.220914,0 -0.4,0.17909 -0.4,0.4 v 3.2 c 0,0.22091 0.179086,0.4 0.4,0.4 h 3.2 c 0.220914,0 0.4,-0.17909 0.4,-0.4 z M 87.6,108 h -7.2 c -0.220914,0 -0.4,-0.17909 -0.4,-0.4 v -7.2 C 80,100.17909 79.820914,100 79.6,100 H 72 v -8 h 3.6 C 75.820914,92 76,91.820914 76,91.6 V 80.4 C 76,80.179086 75.820914,80 75.6,80 H 72 v -4 h 11.6 c 0.220914,0 0.4,0.179086 0.4,0.4 v 3.2 C 84,79.820914 83.820914,80 83.6,80 H 80.4 C 80.179086,80 80,80.179086 80,80.4 v 3.2 c 0,0.220914 0.179086,0.4 0.4,0.4 H 88 v 3.6 c 0,0.220914 0.179086,0.4 0.4,0.4 h 3.2 c 0.220914,0 0.4,0.179086 0.4,0.4 v 3.2 c 0,0.220914 0.179086,0.4 0.4,0.4 H 96 v 7.6 c 0,0.220914 0.179086,0.4 0.4,0.4 h 3.6 v 3.6 c 0,0.22091 -0.179086,0.4 -0.4,0.4 H 88 v -3.6 c 0,-0.22091 -0.179086,-0.4 -0.4,-0.4 h -3.2 c -0.220914,0 -0.4,0.17909 -0.4,0.4 v 3.2 c 0,0.22091 0.179086,0.4 0.4,0.4 H 88 v 4 z m 72,-4 H 156 V 92.4 C 156,92.179086 155.82091,92 155.6,92 H 152 v -4 h 3.6 c 0.22091,0 0.4,-0.179086 0.4,-0.4 V 84.4 C 156,84.179086 155.82091,84 155.6,84 H 152 v -4 h 8 v 3.6 c 0,0.220914 0.17909,0.4 0.4,0.4 h 3.2 c 0.22091,0 0.4,0.179086 0.4,0.4 v 7.2 c 0,0.220914 -0.17909,0.4 -0.4,0.4 h -3.2 c -0.22091,0 -0.4,0.179086 -0.4,0.4 v 11.2 c 0,0.22091 -0.17909,0.4 -0.4,0.4 z m -16,0 h -3.2 c -0.22091,0 -0.4,-0.17909 -0.4,-0.4 v -3.2 c 0,-0.22091 0.17909,-0.4 0.4,-0.4 h 3.6 v 4 z m -12,0 h -3.2 c -0.22091,0 -0.4,-0.17909 -0.4,-0.4 v -3.2 c 0,-0.22091 -0.17909,-0.4 -0.4,-0.4 h -3.2 c -0.22091,0 -0.4,-0.179086 -0.4,-0.4 V 84.4 c 0,-0.220914 0.17909,-0.4 0.4,-0.4 h 3.6 v 11.6 c 0,0.220914 0.17909,0.4 0.4,0.4 h 7.2 c 0.22091,0 0.4,0.179086 0.4,0.4 v 3.2 c 0,0.220914 -0.17909,0.4 -0.4,0.4 h -3.2 c -0.22091,0 -0.4,0.17909 -0.4,0.4 v 3.2 c 0,0.22091 -0.17909,0.4 -0.4,0.4 z m 20,-4 H 144 v -3.6 c 0,-0.220914 0.17909,-0.4 0.4,-0.4 h 3.2 c 0.22091,0 0.4,-0.179086 0.4,-0.4 v -3.2 c 0,-0.220914 0.17909,-0.4 0.4,-0.4 h 3.6 v 7.6 c 0,0.220914 -0.17909,0.4 -0.4,0.4 z m -48,0 H 100 v -3.6 c 0,-0.220914 0.17909,-0.4 0.4,-0.4 h 3.6 v 3.6 c 0,0.220914 -0.17909,0.4 -0.4,0.4 z m -60,0 H 40 V 96.4 C 40,96.179086 40.179086,96 40.4,96 H 44 v 4 z m -8,0 H 32 v -4 h 3.6 c 0.220914,0 0.4,0.179086 0.4,0.4 v 3.6 z m -16,0 H 16.4 C 16.179086,100 16,99.820914 16,99.6 V 96.4 C 16,96.179086 16.179086,96 16.4,96 H 20 v 3.6 c 0,0.220914 -0.179086,0.4 -0.4,0.4 z m 88,-4 H 104 V 92.4 C 104,92.179086 103.82091,92 103.6,92 H 96 V 76.4 C 96,76.179086 95.820914,76 95.6,76 H 92.4 C 92.179086,76 92,75.820914 92,75.6 V 64.4 C 92,64.179086 92.179086,64 92.4,64 H 96 v 7.6 c 0,0.220914 0.179086,0.4 0.4,0.4 h 3.2 c 0.220914,0 0.4,0.179086 0.4,0.4 v 3.2 c 0,0.220914 0.17909,0.4 0.4,0.4 h 3.2 c 0.22091,0 0.4,0.179086 0.4,0.4 v 3.2 c 0,0.220914 0.17909,0.4 0.4,0.4 h 3.2 c 0.22091,0 0.4,0.179086 0.4,0.4 v 3.2 c 0,0.220914 0.17909,0.4 0.4,0.4 h 3.2 c 0.22091,0 0.4,-0.179086 0.4,-0.4 V 64 h 3.6 c 0.22091,0 0.4,-0.179086 0.4,-0.4 v -3.2 c 0,-0.220914 -0.17909,-0.4 -0.4,-0.4 h -3.2 c -0.22091,0 -0.4,0.179086 -0.4,0.4 V 64 h -4 V 48.4 C 108,48.179086 107.82091,48 107.6,48 H 104 v -7.6 c 0,-0.220914 -0.17909,-0.4 -0.4,-0.4 h -3.2 c -0.22091,0 -0.4,0.179086 -0.4,0.4 v 3.2 c 0,0.220914 -0.179086,0.4 -0.4,0.4 H 96 V 40.4 C 96,40.179086 95.820914,40 95.6,40 H 92 V 36.4 C 92,36.179086 91.820914,36 91.6,36 H 88.4 C 88.179086,36 88,36.179086 88,36.4 V 40 H 84 V 36.4 C 84,36.179086 83.820914,36 83.6,36 H 76.4 C 76.179086,36 76,36.179086 76,36.4 v 7.2 C 76,43.820914 75.820914,44 75.6,44 H 72.4 C 72.179086,44 72,43.820914 72,43.6 V 40.4 C 72,40.179086 71.820914,40 71.6,40 H 68.4 C 68.179086,40 68,40.179086 68,40.4 v 3.2 C 68,43.820914 67.820914,44 67.6,44 H 64 v -8 h 7.6 C 71.820914,36 72,35.820914 72,35.6 V 32.4 C 72,32.179086 71.820914,32 71.6,32 H 68.4 C 68.179086,32 68,31.820914 68,31.6 V 28.4 C 68,28.179086 67.820914,28 67.6,28 H 64.4 C 64.179086,28 64,28.179086 64,28.4 V 36 H 56.4 C 56.179086,36 56,36.179086 56,36.4 V 40 H 52 V 36.4 C 52,36.179086 51.820914,36 51.6,36 H 48.4 C 48.179086,36 48,35.820914 48,35.6 V 24.4 C 48,24.179086 48.179086,24 48.4,24 h 3.2 c 0.220914,0 0.4,0.179086 0.4,0.4 v 3.2 c 0,0.220914 0.179086,0.4 0.4,0.4 h 3.2 c 0.220914,0 0.4,0.179086 0.4,0.4 v 3.2 c 0,0.220914 0.179086,0.4 0.4,0.4 h 3.2 C 59.820914,32 60,31.820914 60,31.6 V 24.4 C 60,24.179086 60.179086,24 60.4,24 h 7.2 C 67.820914,24 68,23.820914 68,23.6 V 20.4 C 68,20.179086 68.179086,20 68.4,20 h 3.2 C 71.820914,20 72,19.820914 72,19.6 V 16.4 C 72,16.179086 72.179086,16 72.4,16 h 3.2 c 0.220914,0 0.4,0.179086 0.4,0.4 v 11.2 c 0,0.220914 0.179086,0.4 0.4,0.4 H 88 v 3.6 c 0,0.220914 0.179086,0.4 0.4,0.4 h 7.2 c 0.220914,0 0.4,0.179086 0.4,0.4 v 3.2 c 0,0.220914 0.179086,0.4 0.4,0.4 h 3.2 c 0.220914,0 0.4,-0.179086 0.4,-0.4 v -3.2 c 0,-0.220914 0.17909,-0.4 0.4,-0.4 h 3.6 v 3.6 c 0,0.220914 0.17909,0.4 0.4,0.4 h 3.2 c 0.22091,0 0.4,0.179086 0.4,0.4 v 7.2 c 0,0.220914 0.17909,0.4 0.4,0.4 h 3.2 c 0.22091,0 0.4,-0.179086 0.4,-0.4 v -3.2 c 0,-0.220914 0.17909,-0.4 0.4,-0.4 h 3.6 v 7.6 c 0,0.220914 -0.17909,0.4 -0.4,0.4 h -3.2 c -0.22091,0 -0.4,0.179086 -0.4,0.4 v 7.2 c 0,0.220914 0.17909,0.4 0.4,0.4 h 7.2 c 0.22091,0 0.4,-0.179086 0.4,-0.4 v -7.2 c 0,-0.220914 0.17909,-0.4 0.4,-0.4 h 3.2 c 0.22091,0 0.4,-0.179086 0.4,-0.4 V 44 h 4 v 3.6 c 0,0.220914 0.17909,0.4 0.4,0.4 h 7.2 c 0.22091,0 0.4,0.179086 0.4,0.4 v 7.2 c 0,0.220914 -0.17909,0.4 -0.4,0.4 h -3.2 c -0.22091,0 -0.4,0.179086 -0.4,0.4 V 60 h -4 v -7.6 c 0,-0.220914 -0.17909,-0.4 -0.4,-0.4 h -3.2 c -0.22091,0 -0.4,0.179086 -0.4,0.4 v 7.2 c 0,0.220914 0.17909,0.4 0.4,0.4 h 3.6 v 3.6 c 0,0.220914 -0.17909,0.4 -0.4,0.4 h -3.2 c -0.22091,0 -0.4,0.179086 -0.4,0.4 v 3.2 c 0,0.220914 0.17909,0.4 0.4,0.4 h 3.2 c 0.22091,0 0.4,0.179086 0.4,0.4 V 72 h -7.6 c -0.22091,0 -0.4,0.179086 -0.4,0.4 v 3.2 c 0,0.220914 -0.17909,0.4 -0.4,0.4 h -3.2 c -0.22091,0 -0.4,0.179086 -0.4,0.4 v 3.2 c 0,0.220914 0.17909,0.4 0.4,0.4 h 3.2 c 0.22091,0 0.4,0.179086 0.4,0.4 v 3.2 c 0,0.220914 -0.17909,0.4 -0.4,0.4 h -3.2 c -0.22091,0 -0.4,0.179086 -0.4,0.4 v 3.2 c 0,0.220914 -0.17909,0.4 -0.4,0.4 h -7.2 c -0.22091,0 -0.4,0.179086 -0.4,0.4 v 7.2 c 0,0.220914 -0.17909,0.4 -0.4,0.4 z m -52,0 H 52.4 C 52.179086,96 52,95.820914 52,95.6 V 92.4 C 52,92.179086 51.820914,92 51.6,92 H 48 v -4 h 3.6 C 51.820914,88 52,87.820914 52,87.6 V 84.4 C 52,84.179086 51.820914,84 51.6,84 H 48 v -4 h 3.6 C 51.820914,80 52,79.820914 52,79.6 V 76.4 C 52,76.179086 52.179086,76 52.4,76 h 3.2 C 55.820914,76 56,75.820914 56,75.6 V 72 h 4 v 7.6 c 0,0.220914 0.179086,0.4 0.4,0.4 H 64 v 4 H 56.4 C 56.179086,84 56,84.179086 56,84.4 v 11.2 c 0,0.220914 -0.179086,0.4 -0.4,0.4 z m -8,0 H 44 v -4 h 4 v 3.6 c 0,0.220914 -0.179086,0.4 -0.4,0.4 z m -16,0 H 28.4 C 28.179086,96 28,95.820914 28,95.6 V 92.4 C 28,92.179086 27.820914,92 27.6,92 H 24.4 C 24.179086,92 24,92.179086 24,92.4 v 3.2 C 24,95.820914 23.820914,96 23.6,96 H 20 v -8 h 3.6 C 23.820914,88 24,87.820914 24,87.6 V 84.4 C 24,84.179086 23.820914,84 23.6,84 H 20 V 80.4 C 20,80.179086 19.820914,80 19.6,80 H 16.4 C 16.179086,80 16,79.820914 16,79.6 V 68.4 C 16,68.179086 16.179086,68 16.4,68 h 3.2 C 19.820914,68 20,67.820914 20,67.6 V 52.4 C 20,52.179086 19.820914,52 19.6,52 H 16.4 C 16.179086,52 16,51.820914 16,51.6 V 48.4 C 16,48.179086 16.179086,48 16.4,48 h 15.2 c 0.220914,0 0.4,0.179086 0.4,0.4 v 7.2 C 32,55.820914 31.820914,56 31.6,56 H 28.4 C 28.179086,56 28,56.179086 28,56.4 v 3.2 C 28,59.820914 27.820914,60 27.6,60 H 24.4 C 24.179086,60 24,60.179086 24,60.4 v 3.2 c 0,0.220914 0.179086,0.4 0.4,0.4 h 7.2 C 31.820914,64 32,63.820914 32,63.6 V 60.4 C 32,60.179086 32.179086,60 32.4,60 h 3.2 C 35.820914,60 36,59.820914 36,59.6 V 56.4 C 36,56.179086 36.179086,56 36.4,56 h 7.2 c 0.220914,0 0.4,0.179086 0.4,0.4 V 60 H 40.4 C 40.179086,60 40,60.179086 40,60.4 V 64 H 36.4 C 36.179086,64 36,64.179086 36,64.4 V 75.6 C 36,75.820914 35.820914,76 35.6,76 H 28 v -4 h 3.6 C 31.820914,72 32,71.820914 32,71.6 V 68.4 C 32,68.179086 31.820914,68 31.6,68 H 28.4 C 28.179086,68 28,68.179086 28,68.4 V 72 H 24.4 C 24.179086,72 24,72.179086 24,72.4 v 3.2 c 0,0.220914 0.179086,0.4 0.4,0.4 H 28 v 3.6 c 0,0.220914 0.179086,0.4 0.4,0.4 h 3.2 c 0.220914,0 0.4,0.179086 0.4,0.4 V 96 Z m 112,-4 h -3.2 c -0.22091,0 -0.4,-0.179086 -0.4,-0.4 v -3.2 c 0,-0.220914 -0.17909,-0.4 -0.4,-0.4 h -3.2 c -0.22091,0 -0.4,-0.179086 -0.4,-0.4 v -3.2 c 0,-0.220914 0.17909,-0.4 0.4,-0.4 h 7.2 c 0.22091,0 0.4,0.179086 0.4,0.4 v 7.2 c 0,0.220914 -0.17909,0.4 -0.4,0.4 z M 84,91.6 V 88.4 C 84,88.179086 83.820914,88 83.6,88 H 80.4 C 80.179086,88 80,88.179086 80,88.4 v 3.2 c 0,0.220914 0.179086,0.4 0.4,0.4 h 3.2 C 83.820914,92 84,91.820914 84,91.6 Z M 43.6,92 H 36.4 C 36.179086,92 36,91.820914 36,91.6 V 84.4 C 36,84.179086 36.179086,84 36.4,84 H 40 v 3.6 c 0,0.220914 0.179086,0.4 0.4,0.4 H 44 v 4 z m 108,-4 h -3.2 c -0.22091,0 -0.4,-0.179086 -0.4,-0.4 v -3.2 c 0,-0.220914 0.17909,-0.4 0.4,-0.4 h 3.6 v 4 z M 104,87.6 v -3.2 c 0,-0.220914 -0.17909,-0.4 -0.4,-0.4 h -3.2 c -0.22091,0 -0.4,0.179086 -0.4,0.4 v 3.2 c 0,0.220914 0.17909,0.4 0.4,0.4 h 3.2 c 0.22091,0 0.4,-0.179086 0.4,-0.4 z M 47.6,88 H 44 v -4 h 4 v 4 z m -28,0 H 16.4 C 16.179086,88 16,87.820914 16,87.6 V 84.4 C 16,84.179086 16.179086,84 16.4,84 H 20 v 4 z m 112,-4 H 128 v -4 h 4 v 3.6 c 0,0.220914 -0.17909,0.4 -0.4,0.4 z m -40,0 H 88 V 80.4 C 88,80.179086 88.179086,80 88.4,80 h 3.2 c 0.220914,0 0.4,0.179086 0.4,0.4 v 3.2 c 0,0.220914 -0.179086,0.4 -0.4,0.4 z m -20,0 H 68 v -4 h 4 v 3.6 c 0,0.220914 -0.179086,0.4 -0.4,0.4 z m -28,0 H 40 V 80.4 C 40,80.179086 40.179086,80 40.4,80 H 44 v 4 z m 120,-4 H 160 v -4 h 3.6 c 0.22091,0 0.4,0.179086 0.4,0.4 v 3.2 c 0,0.220914 -0.17909,0.4 -0.4,0.4 z m -12,0 H 132 V 76.4 C 132,76.179086 131.82091,76 131.6,76 H 128 v -4 h 3.6 c 0.22091,0 0.4,-0.179086 0.4,-0.4 V 60 h 3.6 c 0.22091,0 0.4,0.179086 0.4,0.4 v 3.2 c 0,0.220914 0.17909,0.4 0.4,0.4 h 3.2 c 0.22091,0 0.4,-0.179086 0.4,-0.4 V 52.4 c 0,-0.220914 0.17909,-0.4 0.4,-0.4 h 3.6 v 11.6 c 0,0.220914 0.17909,0.4 0.4,0.4 h 7.2 c 0.22091,0 0.4,-0.179086 0.4,-0.4 v -7.2 c 0,-0.220914 -0.17909,-0.4 -0.4,-0.4 h -3.2 C 148.17909,56 148,55.820914 148,55.6 V 52.4 C 148,52.179086 147.82091,52 147.6,52 H 144 v -3.6 c 0,-0.220914 0.17909,-0.4 0.4,-0.4 h 11.2 c 0.22091,0 0.4,0.179086 0.4,0.4 v 3.2 c 0,0.220914 0.17909,0.4 0.4,0.4 h 3.6 v 7.6 c 0,0.220914 0.17909,0.4 0.4,0.4 h 3.2 c 0.22091,0 0.4,0.179086 0.4,0.4 v 11.2 c 0,0.220914 -0.17909,0.4 -0.4,0.4 H 160 v -7.6 c 0,-0.220914 -0.17909,-0.4 -0.4,-0.4 h -3.2 c -0.22091,0 -0.4,0.179086 -0.4,0.4 V 72 h -3.6 c -0.22091,0 -0.4,0.179086 -0.4,0.4 V 80 Z m -24,0 h -3.2 c -0.22091,0 -0.4,-0.179086 -0.4,-0.4 v -3.2 c 0,-0.220914 0.17909,-0.4 0.4,-0.4 h 3.6 v 4 z m -60,0 H 64 v -8 h 3.6 C 67.820914,72 68,71.820914 68,71.6 V 64.4 C 68,64.179086 67.820914,64 67.6,64 H 64.4 C 64.179086,64 64,64.179086 64,64.4 V 72 H 60 V 68.4 C 60,68.179086 59.820914,68 59.6,68 H 56 v -4 h 3.6 C 59.820914,64 60,63.820914 60,63.6 V 60 h 7.6 C 67.820914,60 68,59.820914 68,59.6 V 52.4 C 68,52.179086 68.179086,52 68.4,52 H 72 v 3.6 c 0,0.220914 0.179086,0.4 0.4,0.4 h 3.2 c 0.220914,0 0.4,0.179086 0.4,0.4 v 3.2 c 0,0.220914 0.179086,0.4 0.4,0.4 h 3.2 C 79.820914,60 80,59.820914 80,59.6 V 52 h 3.6 C 83.820914,52 84,51.820914 84,51.6 V 44 h 3.6 C 87.820914,44 88,43.820914 88,43.6 V 40 h 4 v 3.6 c 0,0.220914 0.179086,0.4 0.4,0.4 H 96 v 4 H 92.4 C 92.179086,48 92,48.179086 92,48.4 v 7.2 C 92,55.820914 91.820914,56 91.6,56 H 88.4 C 88.179086,56 88,56.179086 88,56.4 v 3.2 C 88,59.820914 87.820914,60 87.6,60 H 84.4 C 84.179086,60 84,60.179086 84,60.4 v 3.2 c 0,0.220914 0.179086,0.4 0.4,0.4 h 3.2 c 0.220914,0 0.4,0.179086 0.4,0.4 v 3.2 C 88,67.820914 87.820914,68 87.6,68 H 84.4 C 84.179086,68 84,68.179086 84,68.4 v 3.2 C 84,71.820914 83.820914,72 83.6,72 H 72.4 C 72.179086,72 72,72.179086 72,72.4 V 76 H 68.4 C 68.179086,76 68,76.179086 68,76.4 V 80 Z m -20,0 H 44 V 76.4 C 44,76.179086 43.820914,76 43.6,76 H 40.4 C 40.179086,76 40,75.820914 40,75.6 V 72.4 C 40,72.179086 40.179086,72 40.4,72 h 7.2 c 0.220914,0 0.4,0.179086 0.4,0.4 V 80 Z m 112,-4 h -3.2 C 156.17909,76 156,75.820914 156,75.6 V 72 h 4 v 4 z m -52,-4 h -3.2 c -0.22091,0 -0.4,-0.179086 -0.4,-0.4 v -7.2 c 0,-0.220914 0.17909,-0.4 0.4,-0.4 h 3.6 v 7.6 c 0,0.220914 -0.17909,0.4 -0.4,0.4 z m -52,0 H 52.4 C 52.179086,72 52,71.820914 52,71.6 V 68.4 C 52,68.179086 52.179086,68 52.4,68 H 56 v 4 z m -8,-4 H 40.4 C 40.179086,68 40,67.820914 40,67.6 V 64 h 3.6 C 43.820914,64 44,63.820914 44,63.6 V 60 h 3.6 c 0.220914,0 0.4,0.179086 0.4,0.4 v 7.2 c 0,0.220914 -0.179086,0.4 -0.4,0.4 z m 52,-4 H 96 V 48 h 8 v 7.6 c 0,0.220914 -0.17909,0.4 -0.4,0.4 h -3.2 c -0.22091,0 -0.4,0.179086 -0.4,0.4 v 7.2 c 0,0.220914 -0.179086,0.4 -0.4,0.4 z m -44,0 H 52.4 C 52.179086,64 52,63.820914 52,63.6 V 60.4 C 52,60.179086 52.179086,60 52.4,60 H 56 v 4 z m 4,-4 H 56 V 56.4 C 56,56.179086 56.179086,56 56.4,56 h 3.2 c 0.220914,0 0.4,0.179086 0.4,0.4 V 60 Z m -8,-4 H 48.4 C 48.179086,56 48,55.820914 48,55.6 V 48.4 C 48,48.179086 48.179086,48 48.4,48 H 52 v 7.6 c 0,0.220914 -0.179086,0.4 -0.4,0.4 z m 112,-4 H 160 v -3.6 c 0,-0.220914 0.17909,-0.4 0.4,-0.4 h 3.2 c 0.22091,0 0.4,0.179086 0.4,0.4 v 3.2 c 0,0.220914 -0.17909,0.4 -0.4,0.4 z m -84,0 H 72 V 48.4 C 72,48.179086 72.179086,48 72.4,48 h 7.2 c 0.220914,0 0.4,0.179086 0.4,0.4 V 52 Z m -36,0 H 40.4 C 40.179086,52 40,51.820914 40,51.6 V 48.4 C 40,48.179086 40.179086,48 40.4,48 h 3.2 c 0.220914,0 0.4,0.179086 0.4,0.4 v 3.2 c 0,0.220914 -0.179086,0.4 -0.4,0.4 z m 20,-4 H 60.4 C 60.179086,48 60,47.820914 60,47.6 V 44 h 4 v 3.6 c 0,0.220914 -0.179086,0.4 -0.4,0.4 z m -8,0 H 52 v -4 h 4 v 3.6 c 0,0.220914 -0.179086,0.4 -0.4,0.4 z m 108,-4 H 136.4 C 136.17909,44 136,43.820914 136,43.6 V 16.4 c 0,-0.220914 0.17909,-0.4 0.4,-0.4 h 27.2 c 0.22091,0 0.4,0.179086 0.4,0.4 v 27.2 c 0,0.220914 -0.17909,0.4 -0.4,0.4 z m -32,0 H 128 v -3.6 c 0,-0.220914 0.17909,-0.4 0.4,-0.4 h 3.2 c 0.22091,0 0.4,0.179086 0.4,0.4 v 3.2 c 0,0.220914 -0.17909,0.4 -0.4,0.4 z m -8,0 h -3.2 C 120.17909,44 120,43.820914 120,43.6 V 40 h 3.6 c 0.22091,0 0.4,0.179086 0.4,0.4 V 44 Z m -40,0 H 80.4 C 80.179086,44 80,43.820914 80,43.6 V 40.4 C 80,40.179086 80.179086,40 80.4,40 H 84 v 4 z m -24,0 H 56 v -4 h 3.6 c 0.220914,0 0.4,0.179086 0.4,0.4 V 44 Z m -8,0 H 48.4 C 48.179086,44 48,43.820914 48,43.6 V 40.4 C 48,40.179086 48.179086,40 48.4,40 H 52 v 4 z m -8,0 H 16.4 C 16.179086,44 16,43.820914 16,43.6 V 16.4 C 16,16.179086 16.179086,16 16.4,16 h 27.2 c 0.220914,0 0.4,0.179086 0.4,0.4 V 43.6 C 44,43.820914 43.820914,44 43.6,44 Z M 160,39.6 V 20.4 c 0,-0.220914 -0.17909,-0.4 -0.4,-0.4 h -19.2 c -0.22091,0 -0.4,0.179086 -0.4,0.4 v 19.2 c 0,0.220914 0.17909,0.4 0.4,0.4 h 19.2 c 0.22091,0 0.4,-0.179086 0.4,-0.4 z M 119.6,40 H 116 v -4 h 4 v 4 z M 40,39.6 V 20.4 C 40,20.179086 39.820914,20 39.6,20 H 20.4 C 20.179086,20 20,20.179086 20,20.4 v 19.2 c 0,0.220914 0.179086,0.4 0.4,0.4 H 39.6 C 39.820914,40 40,39.820914 40,39.6 Z M 155.6,36 H 144.4 C 144.17909,36 144,35.820914 144,35.6 V 24.4 c 0,-0.220914 0.17909,-0.4 0.4,-0.4 h 11.2 c 0.22091,0 0.4,0.179086 0.4,0.4 v 11.2 c 0,0.220914 -0.17909,0.4 -0.4,0.4 z m -24,0 H 120 v -3.6 c 0,-0.220914 -0.17909,-0.4 -0.4,-0.4 h -3.2 c -0.22091,0 -0.4,0.179086 -0.4,0.4 V 36 h -3.6 C 112.17909,36 112,35.820914 112,35.6 V 24.4 c 0,-0.220914 -0.17909,-0.4 -0.4,-0.4 h -11.2 c -0.22091,0 -0.4,0.179086 -0.4,0.4 v 3.2 c 0,0.220914 -0.179086,0.4 -0.4,0.4 H 88 v -4 h 7.6 C 95.820914,24 96,23.820914 96,23.6 V 20.4 C 96,20.179086 95.820914,20 95.6,20 H 88 V 16.4 C 88,16.179086 88.179086,16 88.4,16 h 11.2 c 0.220914,0 0.4,0.179086 0.4,0.4 v 3.2 c 0,0.220914 0.17909,0.4 0.4,0.4 h 7.2 c 0.22091,0 0.4,-0.179086 0.4,-0.4 v -3.2 c 0,-0.220914 0.17909,-0.4 0.4,-0.4 h 7.2 c 0.22091,0 0.4,0.179086 0.4,0.4 v 3.2 c 0,0.220914 0.17909,0.4 0.4,0.4 h 3.2 c 0.22091,0 0.4,-0.179086 0.4,-0.4 v -3.2 c 0,-0.220914 0.17909,-0.4 0.4,-0.4 h 3.2 c 0.22091,0 0.4,0.179086 0.4,0.4 v 7.2 c 0,0.220914 -0.17909,0.4 -0.4,0.4 h -3.2 c -0.22091,0 -0.4,0.179086 -0.4,0.4 v 3.2 c 0,0.220914 0.17909,0.4 0.4,0.4 h 11.2 c 0.22091,0 0.4,0.179086 0.4,0.4 v 7.2 c 0,0.220914 -0.17909,0.4 -0.4,0.4 z m -96,0 H 24.4 C 24.179086,36 24,35.820914 24,35.6 V 24.4 C 24,24.179086 24.179086,24 24.4,24 h 11.2 c 0.220914,0 0.4,0.179086 0.4,0.4 v 11.2 c 0,0.220914 -0.179086,0.4 -0.4,0.4 z m 72,-4 H 104 v -3.6 c 0,-0.220914 0.17909,-0.4 0.4,-0.4 h 3.2 c 0.22091,0 0.4,0.179086 0.4,0.4 v 3.2 c 0,0.220914 -0.17909,0.4 -0.4,0.4 z m 24,-8 h -3.2 c -0.22091,0 -0.4,-0.179086 -0.4,-0.4 v -7.2 c 0,-0.220914 0.17909,-0.4 0.4,-0.4 h 3.2 c 0.22091,0 0.4,0.179086 0.4,0.4 v 7.2 c 0,0.220914 -0.17909,0.4 -0.4,0.4 z m -44,0 H 80.4 C 80.179086,24 80,23.820914 80,23.6 V 16.4 C 80,16.179086 80.179086,16 80.4,16 h 3.2 c 0.220914,0 0.4,0.179086 0.4,0.4 v 3.2 c 0,0.220914 0.179086,0.4 0.4,0.4 H 88 v 4 z m -32,-4 H 48.4 C 48.179086,20 48,19.820914 48,19.6 V 16.4 C 48,16.179086 48.179086,16 48.4,16 h 7.2 c 0.220914,0 0.4,0.179086 0.4,0.4 v 3.2 c 0,0.220914 -0.179086,0.4 -0.4,0.4 z"
           id="path14" /></g></g></g><inkscape:templateinfo><inkscape:name>garbage-dump</inkscape:name><inkscape:author>清掃係</inkscape:author><inkscape:shortdesc>ゴミ置場用貼り紙</inkscape:shortdesc><inkscape:date>2023-09-15</inkscape:date></inkscape:templateinfo></svg>
